<?xml version="1.0" encoding="UTF-8" standalone="no"?>
<!-- Created with Inkscape (http://www.inkscape.org/) -->

<svg
   width="210mm"
   height="297mm"
   viewBox="0 0 210 297"
   version="1.1"
   id="svg5"
   inkscape:version="1.2.1 (9c6d41e410, 2022-07-14, custom)"
   sodipodi:docname="03-moduleOverlap.svg"
   inkscape:export-filename="03-moduleOverlap.png"
   inkscape:export-xdpi="150"
   inkscape:export-ydpi="150"
   xmlns:inkscape="http://www.inkscape.org/namespaces/inkscape"
   xmlns:sodipodi="http://sodipodi.sourceforge.net/DTD/sodipodi-0.dtd"
   xmlns="http://www.w3.org/2000/svg"
   xmlns:svg="http://www.w3.org/2000/svg">
  <sodipodi:namedview
     id="namedview7"
     pagecolor="#ffffff"
     bordercolor="#666666"
     borderopacity="1.0"
     inkscape:showpageshadow="2"
     inkscape:pageopacity="0.0"
     inkscape:pagecheckerboard="0"
     inkscape:deskcolor="#d1d1d1"
     inkscape:document-units="mm"
     showgrid="false"
     inkscape:zoom="0.78751403"
     inkscape:cx="396.81833"
     inkscape:cy="561.89475"
     inkscape:window-width="1235"
     inkscape:window-height="686"
     inkscape:window-x="9"
     inkscape:window-y="741"
     inkscape:window-maximized="1"
     inkscape:current-layer="layer1" />
  <defs
     id="defs2" />
  <g
     inkscape:label="Layer 1"
     inkscape:groupmode="layer"
     id="layer1">
    <ellipse
       style="fill:none;stroke:#440055;stroke-width:0.264583"
       id="path111"
       cx="59.832989"
       cy="130.49467"
       rx="23.899981"
       ry="24.659237" />
    <text
       xml:space="preserve"
       style="font-style:normal;font-weight:normal;font-size:10.5833px;line-height:1.25;font-family:sans-serif;fill:#333333;fill-opacity:1;stroke:none;stroke-width:0.264583"
       x="-59.97657"
       y="128.79919"
       id="text375"
       transform="rotate(-42.036816)"><tspan
         sodipodi:role="line"
         id="tspan373"
         style="stroke-width:0.264583;fill:#333333"
         x="-59.97657"
         y="128.79919">Manuf</tspan></text>
    <text
       xml:space="preserve"
       style="font-style:normal;font-weight:normal;font-size:10.5833px;line-height:1.25;font-family:sans-serif;fill:#333333;fill-opacity:1;stroke:none;stroke-width:0.264583"
       x="19.052086"
       y="181.717"
       id="text379"
       transform="rotate(-21.130605)"><tspan
         sodipodi:role="line"
         id="tspan377"
         style="stroke-width:0.264583;fill:#333333"
         x="19.052086"
         y="181.717">Stock</tspan><tspan
         sodipodi:role="line"
         style="stroke-width:0.264583;fill:#333333"
         x="19.052086"
         y="194.94612"
         id="tspan381">Mngt</tspan></text>
    <text
       xml:space="preserve"
       style="font-style:normal;font-weight:normal;font-size:10.5833px;line-height:1.25;font-family:sans-serif;fill:#333333;fill-opacity:1;stroke:none;stroke-width:0.264583"
       x="131.26265"
       y="34.963776"
       id="text385"
       transform="rotate(40.219545)"><tspan
         sodipodi:role="line"
         id="tspan383"
         style="stroke-width:0.264583;fill:#333333"
         x="131.26265"
         y="34.963776">Sales</tspan></text>
    <text
       xml:space="preserve"
       style="font-style:normal;font-weight:normal;font-size:10.5833px;line-height:1.25;font-family:sans-serif;fill:#333333;fill-opacity:1;stroke:none;stroke-width:0.264583"
       x="141.69473"
       y="-31.132664"
       id="text439"
       transform="rotate(48.732429)"><tspan
         sodipodi:role="line"
         id="tspan437"
         style="stroke-width:0.264583;fill:#333333"
         x="141.69473"
         y="-31.132664">CRM</tspan></text>
    <text
       xml:space="preserve"
       style="font-style:normal;font-weight:normal;font-size:10.5833px;line-height:1.25;font-family:sans-serif;fill:#333333;fill-opacity:1;stroke:none;stroke-width:0.264583"
       x="121.70168"
       y="89.843529"
       id="text443"
       transform="rotate(40.910059)"><tspan
         sodipodi:role="line"
         id="tspan441"
         style="stroke-width:0.264583;stroke:none;fill:#333333"
         x="121.70168"
         y="89.843529">Purchase</tspan></text>
    <ellipse
       style="fill:none;stroke:#440055;stroke-width:0.264583"
       id="ellipse553"
       cx="89.854111"
       cy="152.29457"
       rx="23.899981"
       ry="24.659237" />
    <ellipse
       style="fill:none;stroke:#440055;stroke-width:0.264583"
       id="ellipse555"
       cx="88.795776"
       cy="126.36573"
       rx="23.899981"
       ry="24.659237" />
    <ellipse
       style="fill:none;stroke:#440055;stroke-width:0.264583"
       id="ellipse555-3"
       cx="113.59875"
       cy="100.11553"
       rx="23.899981"
       ry="24.659237" />
    <ellipse
       style="fill:none;stroke:#440055;stroke-width:0.264583"
       id="ellipse557"
       cx="59.162415"
       cy="152.29457"
       rx="23.899981"
       ry="24.659237" />
    <path
       style="fill:#00ff00;stroke:#00ff00;stroke-width:1.26982"
       d="m 282.51342,551.31442 c -6.80509,-5.34233 -16.89425,-15.91949 -19.08523,-20.00837 -1.25071,-2.33411 4.29104,-11.07571 12.80839,-20.20404 l 5.33171,-5.71419 7.26622,7.89125 c 9.44428,10.25666 16.07619,22.40296 14.30923,26.20725 -1.62251,3.49328 -11.91157,17.32941 -12.88601,17.32836 -0.40649,-4.4e-4 -3.89143,-2.47555 -7.74431,-5.50026 z"
       id="path719"
       transform="scale(0.26458333)" />
    <path
       style="fill:#00ff00;stroke:#00ff00;stroke-width:1.26982"
       d="m 411.42124,468.43141 c -27.74701,-5.71051 -53.46544,-27.87584 -64.59133,-55.66781 -3.37114,-8.42097 -6.99468,-25.41602 -5.6959,-26.7148 1.18586,-1.18586 19.57952,2.846 26.68758,5.84986 11.85361,5.00933 22.25147,12.39789 31.93778,22.69451 13.27688,14.1134 20.73956,29.80283 24.31181,51.11282 0.93149,5.55672 1.01734,5.53823 -12.64994,2.72542 z"
       id="path859"
       transform="scale(0.26458333)" />
    <text
       xml:space="preserve"
       style="font-style:normal;font-weight:normal;font-size:10.5833px;line-height:1.25;font-family:sans-serif;fill:#000000;fill-opacity:1;stroke:none;stroke-width:0.264583"
       x="22.931498"
       y="93.631569"
       id="text863"><tspan
         sodipodi:role="line"
         id="tspan861"
         style="stroke-width:0.264583"
         x="22.931498"
         y="93.631569">Customers</tspan></text>
    <text
       xml:space="preserve"
       style="font-style:normal;font-weight:normal;font-size:10.5833px;line-height:1.25;font-family:sans-serif;fill:#000000;fill-opacity:1;stroke:none;stroke-width:0.264583"
       x="126.79472"
       y="139.46327"
       id="text867"><tspan
         sodipodi:role="line"
         id="tspan865"
         style="stroke-width:0.264583"
         x="126.79472"
         y="139.46327">Product</tspan></text>
    <path
       style="fill:#000080;stroke:#0000ff;stroke-width:0.264583"
       id="path1186"
       d="m 167.49546,142.0223 c -1.80131,0.24618 -3.60821,0.44644 -5.41346,0.66056 -3.62213,0.43626 -7.25651,0.75541 -10.89201,1.05505 -3.50596,0.33619 -7.02472,0.46963 -10.54151,0.63082 -4.84343,0.39946 -9.69543,0.64852 -14.55208,0.80749 -3.74166,0.0866 -7.48472,0.10204 -11.22726,0.10876 -4.0957,0.0796 -8.18456,-0.11344 -12.27045,-0.37088 -3.008609,-0.21974 -6.014411,-0.49194 -9.011359,-0.83674 -1.944182,-0.21095 -3.861284,-0.59155 -5.768663,-1.01297 -0.382352,-0.0995 -0.776687,-0.15735 -1.157129,-0.26488 -1.159621,0.81481 -4.215495,3.05133 -0.045,0.0437 -0.211656,0.0157 0.216781,0.10262 0.04849,0.23142 -1.299509,0.99457 -2.604955,1.38925 -1.257676,0.82942 0.376487,-0.15644 0.756076,-0.30531 1.134113,-0.45797 2.757117,-1.08313 5.554403,-2.06034 8.346755,-3.04798 0.197117,-0.20158 1.274236,-0.33881 1.512665,-0.52281 0.541105,-0.41758 1.071925,-0.84832 1.607886,-1.27248 -2.312048,0.88659 -4.751096,1.44056 -7.151282,2.04227 -1.560756,0.41338 -3.153667,0.69723 -4.708107,1.1343 -1.016807,0.28196 -0.971873,0.51786 -2.133066,1.503 1.703943,1.44881 3.500311,2.78602 5.24305,4.1885 1.086032,0.91666 2.197303,1.82006 3.182072,2.8486 0.478665,0.49109 -0.02125,0.36707 1.18206,-0.42376 0,0 -0.07191,0.0351 -0.07191,0.0351 v 0 c 1.166802,-0.59076 1.190641,-0.30622 0.640967,-0.70523 -1.216311,-0.82998 -2.377197,-1.74025 -3.558111,-2.61869 -1.710399,-1.35131 -3.481713,-2.6829 -4.901081,-4.35006 -3.237074,1.83556 -1.998975,1.03096 -1.177396,0.7551 1.637686,-0.55099 3.333178,-0.90931 4.99718,-1.36882 2.26754,-0.57968 4.537967,-1.14789 6.809817,-1.7104 0.570978,-0.44389 1.154035,-0.87266 1.712939,-1.33167 0.08537,-0.0701 -0.212204,0.0628 -0.314458,0.10464 -0.475072,0.19422 -0.954672,0.37716 -1.432118,0.56538 -2.749277,1.05708 -5.514988,2.07204 -8.305546,3.01533 -1.377624,0.46024 -2.176063,0.71734 -3.49799,1.67288 -0.0039,0.003 0.07918,0.25359 0.08302,0.2823 0.697931,-0.47008 1.39691,-0.93862 2.093791,-1.41026 0.01045,-0.007 -0.02714,-0.0108 -0.03763,-0.004 -1.392423,0.9284 -3.006154,1.46107 -2.12004,1.45263 0.422608,0.041 0.839576,0.13606 1.260364,0.18981 1.975929,0.32247 3.946162,0.68592 5.935636,0.91797 3.074733,0.33044 6.161807,0.5007 9.248457,0.68073 4.06722,0.23477 8.1394,0.47374 12.21515,0.42658 3.80247,-0.0162 7.6047,-0.0556 11.40393,-0.22959 4.83615,-0.19446 9.66452,-0.52253 14.49824,-0.76484 3.64647,-0.19794 7.28563,-0.48573 10.9148,-0.89758 3.66666,-0.36314 7.33739,-0.69072 10.99628,-1.12767 1.77882,-0.21225 3.55517,-0.45978 5.33986,-0.61482 0,0 1.13781,-0.83835 1.13781,-0.83835 z" />
    <path
       style="fill:#000080;stroke:#0000ff;stroke-width:0.264583"
       id="path1194"
       d="m 20.340904,100.70657 c 2.651109,-0.0913 5.292346,-0.39677 7.928169,-0.68293 5.420383,-0.654441 10.817171,-1.469175 16.246064,-2.054645 5.149625,-0.47248 10.320637,-0.878528 15.496363,-0.838917 1.064096,0.0081 2.127464,0.05794 3.191195,0.08692 5.583515,0.264181 11.060369,1.41614 16.424843,2.927892 1.859484,0.57645 3.731303,1.1585 5.491446,2.0006 0.05985,-0.0318 0.568206,0.37233 0.417486,0.19668 3.079398,-1.94554 2.224442,-0.84092 1.521383,-1.13917 -0.295084,-0.12519 -0.601546,-0.32476 -0.866907,-0.48069 -1.58193,-1.014675 -3.136212,-2.071807 -4.648441,-3.187748 -0.420592,-0.289629 -0.795522,-0.643435 -1.221512,-0.925412 -0.487156,0.409027 -1.108779,0.697711 -1.461466,1.227087 -0.09949,0.149326 0.316161,0.169778 0.474136,0.254868 0.23042,0.124113 0.46123,0.247515 0.691047,0.372745 0.957868,0.521954 1.889088,1.071287 2.811618,1.65337 1.006785,0.64463 1.970024,1.34873 2.894039,2.10549 0.0338,0.0354 0.150151,0.11061 0.101389,0.10626 -0.793017,-0.0707 1.05951,-0.93229 1.156348,-1.0948 0.134339,-0.22544 -0.52433,0.0247 -0.786686,0.0311 -0.09825,0.002 -1.941197,0.0215 -1.984216,0.0219 -1.729629,0.009 -3.445857,0.20504 -5.156189,0.44229 -0.47524,0.0578 -0.947479,0.14249 -1.42349,0.19435 -0.03079,0.0221 -0.03649,-0.004 -0.05506,-0.007 -0.327215,0.25472 -0.654428,0.50944 -0.981644,0.76415 0,0 0.07372,-0.0311 0.07372,-0.0311 v 0 c -2.055304,1.51413 -1.131826,0.71335 -0.809987,0.61326 0.514556,-0.13217 1.042445,-0.20789 1.563325,-0.30912 1.733637,-0.29179 3.478101,-0.53113 5.240186,-0.54116 1.214382,0.006 0.7678,-0.002 1.922092,0.0246 0.245163,0.006 0.502746,0.0954 0.73546,0.0181 0.803333,-0.26696 1.578888,-0.62396 2.319838,-1.03335 0.275158,-0.15203 -0.172689,-0.30496 -0.179488,-0.30811 -1.076775,-0.61917 -2.146319,-1.249749 -3.190486,-1.923712 -1.115029,-0.707382 -2.25483,-1.386165 -3.347419,-2.127914 -0.139033,-0.09439 -0.247518,-0.338627 -0.40953,-0.294005 -0.686316,0.189024 -1.279856,0.623695 -1.919785,0.935541 0.420402,0.321283 0.904838,0.551492 1.336845,0.855622 1.581205,1.014601 3.156862,2.043088 4.645853,3.190778 1.309957,1.0262 0.804815,0.8587 2.764001,-0.37992 -0.152715,-0.19152 -0.480266,-0.16425 -0.686062,-0.26327 -2.000496,-0.56249 -3.986376,-1.178139 -6.006748,-1.668483 -5.498309,-1.315241 -11.060496,-2.445393 -16.720251,-2.749497 -6.228376,-0.154546 -12.461629,0.04379 -18.659181,0.715997 -5.359328,0.573526 -10.695932,1.323327 -16.05313,1.912212 -2.5444,0.23776 -5.092539,0.510183 -7.651462,0.496642 0,0 -1.227704,0.891979 -1.227704,0.891979 z" />
  </g>
</svg>
