<?xml version="1.0" encoding="UTF-8" standalone="no"?>
<!-- Created with Inkscape (http://www.inkscape.org/) -->

<svg
   width="420mm"
   height="297mm"
   viewBox="0 0 420 297"
   version="1.1"
   id="svg8"
   inkscape:version="1.2.1 (9c6d41e410, 2022-07-14, custom)"
   sodipodi:docname="factory.svg"
   xmlns:inkscape="http://www.inkscape.org/namespaces/inkscape"
   xmlns:sodipodi="http://sodipodi.sourceforge.net/DTD/sodipodi-0.dtd"
   xmlns="http://www.w3.org/2000/svg"
   xmlns:svg="http://www.w3.org/2000/svg"
   xmlns:rdf="http://www.w3.org/1999/02/22-rdf-syntax-ns#"
   xmlns:cc="http://creativecommons.org/ns#"
   xmlns:dc="http://purl.org/dc/elements/1.1/">
  <defs
     id="defs2">
    <clipPath
       clipPathUnits="userSpaceOnUse"
       id="clipPath3562">
      <path
         inkscape:connector-curvature="0"
         id="path3564"
         d="m 237.5562154225922,-350.5929924466879 420.000002447765,0 0,297.00000173091871 -420.000002447765,0 z"
         style="color:#000000;clip-rule:nonzero;display:inline;overflow:visible;visibility:visible;opacity:1;isolation:auto;mix-blend-mode:normal;color-interpolation:sRGB;color-interpolation-filters:linearRGB;solid-color:#000000;solid-opacity:1;fill:#000000;fill-opacity:1;fill-rule:nonzero;stroke:none;stroke-width:1;stroke-linecap:butt;stroke-linejoin:round;stroke-miterlimit:10;stroke-dasharray:none;stroke-dashoffset:0;stroke-opacity:1;marker:none;color-rendering:auto;image-rendering:auto;shape-rendering:auto;text-rendering:auto;enable-background:accumulate" />
    </clipPath>
    <clipPath
       clipPathUnits="userSpaceOnUse"
       id="clipPath3668">
      <path
         inkscape:connector-curvature="0"
         id="path3670"
         d="m -379.5563700906095,-2315.686631613614 420.00000244776424,0 0,297.000001730919 -420.00000244776424,0 z"
         style="color:#000000;clip-rule:nonzero;display:inline;overflow:visible;visibility:visible;opacity:1;isolation:auto;mix-blend-mode:normal;color-interpolation:sRGB;color-interpolation-filters:linearRGB;solid-color:#000000;solid-opacity:1;fill:#000000;fill-opacity:1;fill-rule:nonzero;stroke:none;stroke-width:1;stroke-linecap:butt;stroke-linejoin:round;stroke-miterlimit:10;stroke-dasharray:none;stroke-dashoffset:0;stroke-opacity:1;marker:none;color-rendering:auto;image-rendering:auto;shape-rendering:auto;text-rendering:auto;enable-background:accumulate" />
    </clipPath>
    <clipPath
       clipPathUnits="userSpaceOnUse"
       id="clipPath3676">
      <path
         inkscape:connector-curvature="0"
         id="path3678"
         d="m -379.5563700906095,-1507.262701787881 420.00000244776424,0 0,297.000001730919 -420.00000244776424,0 z"
         style="color:#000000;clip-rule:nonzero;display:inline;overflow:visible;visibility:visible;opacity:1;isolation:auto;mix-blend-mode:normal;color-interpolation:sRGB;color-interpolation-filters:linearRGB;solid-color:#000000;solid-opacity:1;fill:#000000;fill-opacity:1;fill-rule:nonzero;stroke:none;stroke-width:1;stroke-linecap:butt;stroke-linejoin:round;stroke-miterlimit:10;stroke-dasharray:none;stroke-dashoffset:0;stroke-opacity:1;marker:none;color-rendering:auto;image-rendering:auto;shape-rendering:auto;text-rendering:auto;enable-background:accumulate" />
    </clipPath>
    <clipPath
       clipPathUnits="userSpaceOnUse"
       id="clipPath3680">
      <path
         style="color:#000000;clip-rule:nonzero;display:inline;overflow:visible;visibility:visible;opacity:1;isolation:auto;mix-blend-mode:normal;color-interpolation:sRGB;color-interpolation-filters:linearRGB;solid-color:#000000;solid-opacity:1;fill:#000000;fill-opacity:1;fill-rule:nonzero;stroke:none;stroke-width:1;stroke-linecap:butt;stroke-linejoin:round;stroke-miterlimit:10;stroke-dasharray:none;stroke-dashoffset:0;stroke-opacity:1;marker:none;color-rendering:auto;image-rendering:auto;shape-rendering:auto;text-rendering:auto;enable-background:accumulate"
         d="m -379.5563700906095,-1128.109134732988 420.00000244776424,0 0,297.0000017309187 -420.00000244776424,0 z"
         id="path3682"
         inkscape:connector-curvature="0" />
    </clipPath>
    <clipPath
       clipPathUnits="userSpaceOnUse"
       id="clipPath3684">
      <path
         style="color:#000000;clip-rule:nonzero;display:inline;overflow:visible;visibility:visible;opacity:1;isolation:auto;mix-blend-mode:normal;color-interpolation:sRGB;color-interpolation-filters:linearRGB;solid-color:#000000;solid-opacity:1;fill:#000000;fill-opacity:1;fill-rule:nonzero;stroke:none;stroke-width:1;stroke-linecap:butt;stroke-linejoin:round;stroke-miterlimit:10;stroke-dasharray:none;stroke-dashoffset:0;stroke-opacity:1;marker:none;color-rendering:auto;image-rendering:auto;shape-rendering:auto;text-rendering:auto;enable-background:accumulate"
         d="m -379.5563700906095,-720.9993529876968 420.00000244776424,0 0,297.0000017309184 -420.00000244776424,0 z"
         id="path3686"
         inkscape:connector-curvature="0" />
    </clipPath>
    <clipPath
       clipPathUnits="userSpaceOnUse"
       id="clipPath3688">
      <path
         inkscape:connector-curvature="0"
         id="path3690"
         d="m -379.5563700906095,-318.5751270702144 420.00000244776424,0 0,297.00000173091876 -420.00000244776424,0 z"
         style="color:#000000;clip-rule:nonzero;display:inline;overflow:visible;visibility:visible;opacity:1;isolation:auto;mix-blend-mode:normal;color-interpolation:sRGB;color-interpolation-filters:linearRGB;solid-color:#000000;solid-opacity:1;fill:#000000;fill-opacity:1;fill-rule:nonzero;stroke:none;stroke-width:1;stroke-linecap:butt;stroke-linejoin:round;stroke-miterlimit:10;stroke-dasharray:none;stroke-dashoffset:0;stroke-opacity:1;marker:none;color-rendering:auto;image-rendering:auto;shape-rendering:auto;text-rendering:auto;enable-background:accumulate" />
    </clipPath>
    <clipPath
       clipPathUnits="userSpaceOnUse"
       id="clipPath291">
      <g
         id="g295">
        <path
           style="color:#000000;clip-rule:nonzero;display:inline;overflow:visible;visibility:visible;opacity:1;isolation:auto;mix-blend-mode:normal;color-interpolation:sRGB;color-interpolation-filters:linearRGB;solid-color:#000000;solid-opacity:1;fill:#000000;fill-opacity:1;fill-rule:nonzero;stroke:none;stroke-width:1;stroke-linecap:butt;stroke-linejoin:round;stroke-miterlimit:10;stroke-dasharray:none;stroke-dashoffset:0;stroke-opacity:1;marker:none;color-rendering:auto;image-rendering:auto;shape-rendering:auto;text-rendering:auto;enable-background:accumulate"
           d="M 0,0 H 420 V 297 H 0 Z"
           id="path293"
           inkscape:connector-curvature="0" />
      </g>
    </clipPath>
    <clipPath
       clipPathUnits="userSpaceOnUse"
       id="clipPath297">
      <g
         id="g301">
        <path
           style="color:#000000;clip-rule:nonzero;display:inline;overflow:visible;visibility:visible;opacity:1;isolation:auto;mix-blend-mode:normal;color-interpolation:sRGB;color-interpolation-filters:linearRGB;solid-color:#000000;solid-opacity:1;fill:#000000;fill-opacity:1;fill-rule:nonzero;stroke:none;stroke-width:1;stroke-linecap:butt;stroke-linejoin:round;stroke-miterlimit:10;stroke-dasharray:none;stroke-dashoffset:0;stroke-opacity:1;marker:none;color-rendering:auto;image-rendering:auto;shape-rendering:auto;text-rendering:auto;enable-background:accumulate"
           d="M 0,0 H 420 V 297 H 0 Z"
           id="path299"
           inkscape:connector-curvature="0" />
      </g>
    </clipPath>
    <clipPath
       clipPathUnits="userSpaceOnUse"
       id="clipPath311">
      <g
         id="g317">
        <g
           id="g315"
           transform="translate(15.376769,8.8130513)">
          <path
             style="color:#000000;clip-rule:nonzero;display:inline;overflow:visible;visibility:visible;opacity:1;isolation:auto;mix-blend-mode:normal;color-interpolation:sRGB;color-interpolation-filters:linearRGB;solid-color:#000000;solid-opacity:1;fill:#000000;fill-opacity:1;fill-rule:nonzero;stroke:none;stroke-width:1;stroke-linecap:butt;stroke-linejoin:round;stroke-miterlimit:10;stroke-dasharray:none;stroke-dashoffset:0;stroke-opacity:1;marker:none;color-rendering:auto;image-rendering:auto;shape-rendering:auto;text-rendering:auto;enable-background:accumulate"
             d="M 0,0 H 420 V 297 H 0 Z"
             id="path313"
             inkscape:connector-curvature="0" />
        </g>
      </g>
    </clipPath>
    <clipPath
       clipPathUnits="userSpaceOnUse"
       id="clipPath319">
      <g
         id="g325">
        <g
           id="g323"
           transform="translate(15.376769,8.8130513)">
          <path
             style="color:#000000;clip-rule:nonzero;display:inline;overflow:visible;visibility:visible;opacity:1;isolation:auto;mix-blend-mode:normal;color-interpolation:sRGB;color-interpolation-filters:linearRGB;solid-color:#000000;solid-opacity:1;fill:#000000;fill-opacity:1;fill-rule:nonzero;stroke:none;stroke-width:1;stroke-linecap:butt;stroke-linejoin:round;stroke-miterlimit:10;stroke-dasharray:none;stroke-dashoffset:0;stroke-opacity:1;marker:none;color-rendering:auto;image-rendering:auto;shape-rendering:auto;text-rendering:auto;enable-background:accumulate"
             d="M 0,0 H 420 V 297 H 0 Z"
             id="path321"
             inkscape:connector-curvature="0" />
        </g>
      </g>
    </clipPath>
  </defs>
  <sodipodi:namedview
     id="base"
     pagecolor="#1260ff"
     bordercolor="#ffffff"
     borderopacity="1"
     inkscape:pageopacity="0.8235294118"
     inkscape:pageshadow="2"
     inkscape:zoom="0.48729658"
     inkscape:cx="-42.068836"
     inkscape:cy="705.9356"
     inkscape:document-units="mm"
     inkscape:current-layer="layer1"
     showgrid="false"
     guidecolor="#25861d"
     guideopacity="1"
     guidehicolor="#ff9300"
     guidehiopacity="1"
     inkscape:pagecheckerboard="true"
     borderlayer="true"
     inkscape:showpageshadow="false"
     inkscape:window-width="3422"
     inkscape:window-height="1389"
     inkscape:window-x="9"
     inkscape:window-y="42"
     inkscape:window-maximized="1"
     inkscape:object-nodes="true"
     inkscape:snap-smooth-nodes="true"
     showguides="false"
     inkscape:guide-bbox="true"
     inkscape:snap-global="true"
     inkscape:snap-intersection-paths="false"
     inkscape:deskcolor="#1260ff">
    <sodipodi:guide
       position="290.2603337051589,661.9661127107861"
       orientation="1,0"
       id="guide5207"
       inkscape:locked="false" />
    <sodipodi:guide
       position="229.55636028612,655.593112730533"
       orientation="0,1"
       id="guide5209"
       inkscape:locked="false" />
    <sodipodi:guide
       position="631.0220735990201,594.5800772308148"
       orientation="0,1"
       id="guide5211"
       inkscape:locked="false" />
    <sodipodi:guide
       position="290.2603337051589,465.5904602196706"
       orientation="0.1613029044269116,0.9869049462959655"
       id="guide5213"
       inkscape:locked="false" />
    <sodipodi:guide
       position="607.2868217919489,375.3286743460637"
       orientation="-0.861807591507827,0.5072353252874628"
       id="guide5215"
       inkscape:locked="false" />
    <sodipodi:guide
       position="665.5562451760071,342.5929939917627"
       orientation="0,1"
       id="guide5217"
       inkscape:locked="false" />
    <sodipodi:guide
       position="736.3319314934413,594.5800772308148"
       orientation="0.2777870836026408,-0.9606426683130098"
       id="guide5228"
       inkscape:locked="false" />
    <sodipodi:guide
       position="501.2123389540885,431.1117885703562"
       orientation="1,0"
       id="guide5459"
       inkscape:locked="false" />
    <sodipodi:guide
       position="-541.3830035840579,1259.510650766163"
       orientation="-0.09810036546051126,0.9951765261985002"
       id="guide7346"
       inkscape:locked="false" />
    <sodipodi:guide
       position="-310.8722900747222,1341.451540497387"
       orientation="-0.3349426234688884,0.9422385255251339"
       id="guide7348"
       inkscape:locked="false" />
    <sodipodi:guide
       position="-541.3830805291509,1259.510650766186"
       orientation="0,1"
       id="guide7350"
       inkscape:locked="false" />
    <sodipodi:guide
       position="126.1646179385071,1259.51068305139"
       orientation="-0.02888838158610021,-0.9995826436114904"
       id="guide7356"
       inkscape:locked="false" />
    <sodipodi:guide
       position="-237.5040396451161,1309.09033152132"
       orientation="1,0"
       id="guide7360"
       inkscape:locked="false" />
    <sodipodi:guide
       position="-222.2664493324619,1303.158923547129"
       orientation="1,0"
       id="guide7364"
       inkscape:locked="false" />
    <sodipodi:guide
       position="-105.7415721837395,1291.126945928793"
       orientation="1,0"
       id="guide7372"
       inkscape:locked="false" />
    <sodipodi:guide
       position="-99.45838492630197,1287.795387628283"
       orientation="1,0"
       id="guide7376"
       inkscape:locked="false" />
    <sodipodi:guide
       position="-93.50400610938911,1287.048942597445"
       orientation="1,0"
       id="guide7380"
       inkscape:locked="false" />
  </sodipodi:namedview>
  <metadata
     id="metadata5">
    <rdf:RDF>
      <cc:Work
         rdf:about="">
        <dc:format>image/svg+xml</dc:format>
        <dc:type
           rdf:resource="http://purl.org/dc/dcmitype/StillImage" />
        <dc:title />
        <dc:date>2016</dc:date>
        <dc:creator>
          <cc:Agent>
            <dc:title>Lazur URH - Tamás Pétery</dc:title>
          </cc:Agent>
        </dc:creator>
        <dc:description>Made this for a subject in Architecture I MSc at the UNIVERSITY OF PÉCS 
Faculty of Engineering and Information Technology (PTE MIK) in the autumn semester of 2016-2017 as part of my architect studies (MSc). 
Image shows the schematics of the iconic building of Gyula Rimanóczy: 
tobacco factory, Nyíregyháza, Hungary (1951).</dc:description>
      </cc:Work>
    </rdf:RDF>
  </metadata>
  <g
     inkscape:label="Layer 1"
     inkscape:groupmode="layer"
     id="layer1">
    <path
       style="color:#000000;clip-rule:nonzero;display:inline;overflow:visible;visibility:visible;isolation:auto;mix-blend-mode:normal;color-interpolation:sRGB;color-interpolation-filters:linearRGB;solid-color:#000000;solid-opacity:1;fill:#ffffff;fill-opacity:1;fill-rule:nonzero;stroke:none;stroke-width:3.54331;stroke-linecap:round;stroke-linejoin:round;stroke-miterlimit:4.04769;stroke-dasharray:none;stroke-dashoffset:0;stroke-opacity:1;marker:none;color-rendering:auto;image-rendering:auto;shape-rendering:auto;text-rendering:auto;enable-background:accumulate"
       d="M -15.00001,-11.5001 H 435.00002 V 308.5 H -15.00001 Z"
       id="path3706"
       inkscape:connector-curvature="0"
       clip-path="url(#clipPath297)"
       transform="translate(-5.9749019,-2.7886931)" />
    <path
       inkscape:export-ydpi="58.25687408447266"
       inkscape:export-xdpi="58.25687408447266"
       style="color:#000000;clip-rule:nonzero;display:inline;overflow:visible;visibility:visible;isolation:auto;mix-blend-mode:normal;color-interpolation:sRGB;color-interpolation-filters:linearRGB;solid-color:#000000;solid-opacity:1;fill:#c8c8c8;fill-opacity:1;fill-rule:nonzero;stroke:none;stroke-width:3.54331;stroke-linecap:round;stroke-linejoin:round;stroke-miterlimit:4.04769;stroke-dasharray:none;stroke-dashoffset:0;stroke-opacity:1;marker:none;color-rendering:auto;image-rendering:auto;shape-rendering:auto;text-rendering:auto;enable-background:accumulate"
       d="M -8.00003,-8.0001 H 428.00003 V 305 H -8.00003 Z"
       id="path3708"
       inkscape:connector-curvature="0"
       clip-path="url(#clipPath291)"
       transform="translate(-536.83834,-6.9604736)" />
    <path
       style="color:#000000;clip-rule:nonzero;display:inline;overflow:visible;visibility:visible;isolation:auto;mix-blend-mode:normal;color-interpolation:sRGB;color-interpolation-filters:linearRGB;solid-color:#000000;solid-opacity:1;fill:#dbdee3;fill-opacity:1;fill-rule:nonzero;stroke:none;stroke-width:0.127633;stroke-linecap:round;stroke-linejoin:round;stroke-miterlimit:4;stroke-dasharray:none;stroke-dashoffset:0;stroke-opacity:1;marker:none;paint-order:markers fill stroke;color-rendering:auto;image-rendering:auto;shape-rendering:auto;text-rendering:auto;enable-background:accumulate"
       d="m 204.89448,56.611221 -98.95104,23.015473 -3e-4,91.800086 -37.827845,2.31178 v 52.06357 l 205.373145,-17.23339 26.42278,0.16424 v 0.98077 l 60.11593,0.45444 v -57.35566 l -47.83023,6.98215 v -1.39037 h -10.04647 v 2.85658 l -2.23923,0.32714 v 2.39685 l -6.96301,0.38387 z"
       id="path3712"
       inkscape:connector-curvature="0"
       sodipodi:nodetypes="cccccccccccccccccc"
       clip-path="url(#clipPath319)"
       inkscape:export-filename="factory.png"
       inkscape:export-xdpi="150"
       inkscape:export-ydpi="150" />
    <path
       inkscape:connector-curvature="0"
       id="path3714"
       d="m 185.53561,53.82192 -16.01948,3.915828 0.79277,5.845697 -32.62267,7.646329 -3.12697,-4.947391 -13.26979,3.244387 0.85282,5.346176 -16.19886,3.796722 v 0.956999 l 98.95104,-23.015475 88.05371,107.757528 0.23744,-0.0132 -1.50711,-1.85865 c -0.24274,-1.26494 -0.72966,-2.41422 -1.65286,-3.48513 -0.41725,-0.48402 -1.11396,-0.73385 -1.57636,-0.49665 l -4.51865,-5.57267 c -0.0257,-1.10636 -0.42658,-2.34749 -1.19579,-3.42775 -0.82705,-1.16144 -1.73995,-1.55459 -2.63234,-1.29274 l -8.58817,-10.5906 c 0.22602,-1.23553 -0.0867,-3.12066 -1.27099,-4.65322 -0.9961,-1.28916 -2.51266,-1.72911 -3.69092,-1.46557 l -16.66651,-20.55333 c 0.0485,-3.04998 -1.7547,-6.52133 -3.68761,-8.6759 -1.95631,-2.18061 -4.34379,-3.642464 -6.7335,-4.175045 l -34.57034,-42.631527 -17.02379,3.990054 z m -30.68686,19.923423 -3.52208,0.786191 v 2.453603 l 3.52208,-0.771029 z m -5.34246,1.192508 -3.52208,0.786191 v 2.446308 l 3.52208,-0.786191 z m 66.5757,0.750564 v 5.386666 l 1.99318,2.243184 v -5.288396 z m 10.96193,12.876675 v 4.847804 l 1.61727,1.819712 v -4.767972 z m -10.96193,8.669955 v 5.386665 l 1.99318,1.85139 v -5.288364 z m 19.93001,1.863916 v 4.406569 l 1.33893,1.50643 v -4.34058 z m 7.47285,8.777479 v 4.03919 l 1.12588,1.26768 v -3.98445 z m -16.44093,0.0791 v 4.84781 l 1.61727,1.5018 v -4.76797 z m 8.96808,8.77022 v 4.40654 l 1.33893,1.24329 v -4.34058 z m -19.93001,2.05586 v 5.38667 l 1.99318,1.45895 v -5.2884 z m 33.72545,3.97057 v 3.72588 l 3.15338,3.23847 v -3.5709 z m -6.32259,1.28153 v 4.03919 l 1.12588,1.04605 v -3.98374 z m 15.73325,2.3197 v 3.26286 l 0.74925,0.84293 v -3.22595 z m -5.2422,0.88446 v 3.52076 l 1.22348,1.25647 v -3.46071 z m -26.93198,0.10817 v 4.8478 l 1.61727,1.18393 v -4.768 z m 22.76352,2.85789 v 3.72588 l 3.15338,2.92779 v -3.57087 z m 13.66483,1.14699 v 3.05311 l 0.65695,0.73871 v -3.02079 z m -27.46027,3.00168 v 4.40721 l 1.33893,0.97942 v -4.34058 z m 31.20198,1.39232 v 2.86911 l 0.57976,0.65297 v -2.84074 z m -17.40654,1.91076 v 3.72587 l 3.15338,2.61715 v -3.57087 z m 9.41066,1.74853 v 3.26218 l 0.74925,0.69586 v -3.22595 z m 11.31152,0.23544 v 2.70552 l 0.51644,0.58108 v -2.68047 z m -27.04477,0.55139 v 4.03919 l 1.12588,0.82445 v -3.98377 z m -27.40286,0.1372 v 5.38667 l 1.99318,1.06716 v -5.28837 z m 37.89391,0.99199 v 3.52076 l 1.22348,1.01572 v -3.46075 z m 9.49637,2.24318 v 3.05312 l 0.65695,0.61008 v -3.02144 z m -13.66483,1.54402 v 3.72587 l 3.15338,2.3065 v -3.57023 z m -22.76352,1.62979 v 4.84713 l 1.61727,0.86602 v -4.76801 z m 40.17006,0.48412 v 2.8691 l 0.57976,0.53887 v -2.84074 z m 3.31564,3.24175 v 2.70553 l 0.51644,0.47949 v -2.68046 z m -34.51762,1.517 v 4.40654 l 1.33893,0.71629 v -4.34059 z m 124.01512,0.14312 -60.11594,8.77552 v 0.895 l 60.11594,-8.77549 z m -100.80902,0.33111 v 3.26286 l 0.74925,0.54808 v -3.22591 z m -9.41066,0.10486 v 3.72587 l 3.15338,1.99653 v -3.57091 z m 4.16846,2.84404 v 3.52076 l 1.22348,0.77434 v -3.46007 z m 9.49637,0.37333 v 3.05311 l 0.65695,0.48017 v -3.0208 z m -19.98742,0.57182 v 4.03919 l 1.12588,0.60349 v -3.98441 z m 23.72913,2.34939 v 2.8691 l 0.57976,0.42408 v -2.84074 z m -17.40654,1.31316 v 3.72588 l 3.15338,1.68585 v -3.57087 z m 20.72218,1.27562 v 2.70552 l 0.51644,0.37792 v -2.68047 z m -54.44763,0.58833 v 5.38664 l 1.99318,0.67539 v -5.28904 z m 110.90297,3.11708 -2.72926,0.14116 v 1.65616 l 2.72926,-0.13521 z m -4.80492,0.24932 -2.69498,0.13916 v 1.64563 l 2.69498,-0.13389 z m -4.7449,0.24537 -2.66068,0.13785 v 1.6357 l 2.66068,-0.13255 z m -58.21704,0.0186 v 3.26286 l 0.74925,0.40034 v -3.22591 z m 53.53217,0.22423 -2.62704,0.13653 v 1.62517 l 2.62704,-0.13059 z m -4.62617,0.24011 -2.5954,0.13453 v 1.61463 l 2.5954,-0.12863 z m -81.08018,0.15827 v 4.84781 l 1.61727,0.54744 v -4.76801 z m 22.76352,1.33495 v 3.72591 l 3.15338,1.37584 v -3.57087 z m 13.66483,0.52634 v 3.05379 l 0.65695,0.3509 v -3.0208 z m 36.43891,0.49932 -21.86386,1.07046 v 5.45657 l 21.86386,-0.90229 z m -45.93528,0.99789 v 3.52076 l 1.22348,0.53359 v -3.46075 z m -17.9639,0.12073 v 4.40653 l 1.33893,0.45376 v -4.34122 z m 40.02893,0.0501 -2.55251,0.12464 v 5.42162 l 2.55251,-0.10553 z m -8.82695,0.51644 v 2.8691 l 0.57976,0.31065 v -2.84074 z m -161.27055,0.0409 -37.827964,2.40082 v 1.96287 l 141.486294,16.28592 v 9.12243 l 5.30552,0.19259 v -8.70426 l 1.37189,0.15763 v 1.51501 l 9.71013,0.98344 v 13.71231 l 8.97138,-0.3278 V 195.0392 l 9.85122,0.99726 v 11.11828 l 7.16352,-0.26185 v -10.13157 l 21.513,2.17787 v -1.11794 l -85.13912,-10.44948 16.54517,-0.44981 68.59395,9.82947 v -2.02487 l 2.55251,-0.0343 v -5.44077 l -2.55251,0.0541 v 5.01334 l -68.59395,-13.03758 -51.06408,1.8448 3.03002,0.38123 -82.638039,-10.14279 31.721059,-1.94108 z m 164.58619,1.8956 v 2.70552 l 0.51644,0.2757 v -2.67983 z m -27.04477,0.39571 v 4.03983 l 1.12588,0.38123 v -3.98374 z m 6.32259,2.40875 v 3.72588 l 3.15338,1.0652 v -3.57091 z m 77.17752,1.67924 -2.72926,0.0996 v 1.65617 l 2.72926,-0.0936 z m -4.80492,0.17543 -2.69498,0.0983 v 1.6456 l 2.69498,-0.0923 z m -4.74423,0.17283 -2.66135,0.0969 v 1.63571 l 2.66135,-0.0917 z m -4.68554,0.17081 -2.62704,0.0963 v 1.62449 l 2.62704,-0.0897 z m -4.62617,0.16885 -2.5954,0.095 v 1.6146 l 2.5954,-0.089 z m -48.906,1.27429 v 3.26219 l 0.74925,0.25327 v -3.22591 z m 40.69308,0.0613 -21.86386,0.76708 v 5.45589 l 21.86386,-0.59823 z m -23.87025,0.83698 -2.55251,0.0897 v 5.42098 l 2.55251,-0.0699 z m -12.56866,0.74797 v 3.05311 l 0.65695,0.2216 v -3.0208 z m 3.74171,1.44773 v 2.86911 l 0.57976,0.19586 v -2.84073 z m -17.40654,0.71629 v 3.72588 l 3.15338,0.75451 v -3.57087 z m 20.72218,0.56656 v 2.7062 l 0.51644,0.17411 v -2.68046 z m -151.49518,0.37069 v 13.38649 l 16.77798,0.61076 v -12.29888 z m 134.94146,0.26512 v 3.52076 l 1.22348,0.29285 v -3.46075 z m -102.64923,3.00364 v 11.29305 l 2.54593,0.093 v -11.12815 z m 4.63607,0.46964 v 10.99226 l 2.41335,0.0877 v -10.83597 z m 4.396,0.44454 v 10.70735 l 2.28999,0.0838 v -10.55896 z m 4.17373,0.42276 v 10.43696 l 2.17655,0.0791 v -10.29579 z m 162.45249,0.28627 -2.72926,0.0574 v 1.65607 l 2.72926,-0.0514 z m -4.80492,0.10158 -2.69498,0.0567 v 1.64563 l 2.69498,-0.0508 z m -153.68031,0.0138 v 10.1797 l 2.0717,0.0752 v -10.04515 z m 148.93608,0.0864 -2.66135,0.0561 v 1.6357 l 2.66135,-0.0508 z m -4.68554,0.0989 -2.62704,0.0561 v 1.62452 l 2.62704,-0.0495 z m -4.62617,0.0983 -2.5954,0.0547 v 1.61463 l 2.5954,-0.0488 z m -135.84703,0.0989 v 9.93436 l 1.97339,0.0719 v -9.8064 z m 127.63411,0.0521 -21.86386,0.46366 v 5.45593 l 21.86386,-0.29484 z m -113.42384,1.38642 v 9.01292 l 9.7932,0.35684 v -8.37845 z m 136.51189,7.07248 c -1.35292,-0.0101 -2.89079,0.41729 -3.92441,1.0375 v 9.36646 l 7.91014,0.0356 v -9.34207 c -1.13865,-0.619 -2.50223,-1.0863 -3.98573,-1.09751 z m -23.08805,1.66937 -26.42276,0.19323 v 9.5017 l 26.42276,0.16422 z m 17.52463,0.97878 -2.66135,0.0152 v 1.63574 l 2.66135,-0.01 z m -4.68554,0.027 -2.62704,0.0152 v 1.62516 l 2.62704,-0.009 z m -4.62617,0.027 -2.5954,0.0152 v 1.61527 l 2.5954,-0.01 z m 71.94585,10.99557 -168.3998,49.03459 9.97985,0.86734 160.9883,-49.5873 z"
       style="color:#000000;clip-rule:nonzero;display:inline;overflow:visible;visibility:visible;isolation:auto;mix-blend-mode:normal;color-interpolation:sRGB;color-interpolation-filters:linearRGB;solid-color:#000000;solid-opacity:1;fill:#000000;fill-opacity:1;fill-rule:nonzero;stroke:none;stroke-width:0.127633;stroke-linecap:round;stroke-linejoin:round;stroke-miterlimit:4;stroke-dasharray:none;stroke-dashoffset:0;stroke-opacity:1;marker:none;paint-order:markers fill stroke;color-rendering:auto;image-rendering:auto;shape-rendering:auto;text-rendering:auto;enable-background:accumulate"
       sodipodi:nodetypes="cccccccccccccsccsccsccsccccccccccccccccccccccccccccccccccccccccccccccccccccccccccccccccccccccccccccccccccccccccccccccccccccccccccccccccccccccccccccccccccccccccccccccccccccccccccccccccccccccccccccccccccccccccccccccccccccccccccccccccccccccccccccccccccccccccccccccccccccccccccccccccccccccccccccccccccccccccccccccccccccccccccccccccccccccccccccccccccccccccccccccccccccccccccccccccccccccccccccccccccccccccccccccccccccccccccccccccccccscccccccccccccccccccccccccccccccccccccccccccccccccccccccccsccccsccccccccccccccccccccccccc"
       clip-path="url(#clipPath311)" />
  </g>
</svg>
